<svg xmlns="http://www.w3.org/2000/svg" width="50" height="50" viewBox="0 0 50 50" version="1.1"><path d="" stroke="none" fill="#288ce4" fill-rule="evenodd"/><path d="M 20.048 3.442 C 19.390 4.235, 17.422 5.023, 15.676 5.192 C 11.516 5.595, 11.546 7.755, 15.774 12.402 C 18.502 15.399, 19.723 16, 23.090 16 C 28.465 16, 30.597 14.710, 32.997 10.006 C 35.759 4.592, 35.568 4, 31.059 4 C 28.891 4, 26.840 3.550, 26.500 3 C 25.578 1.508, 21.417 1.793, 20.048 3.442 M 19.198 7.022 C 17.251 8.069, 16.430 8.981, 17.198 9.244 C 17.914 9.489, 19.524 9.025, 20.776 8.213 C 22.801 6.899, 23.248 6.915, 24.845 8.360 C 26.430 9.794, 26.866 9.813, 28.570 8.524 C 30.452 7.100, 30.445 7.063, 28.309 7.032 C 27.104 7.014, 25.840 6.550, 25.500 6 C 24.669 4.655, 23.134 4.904, 19.198 7.022 M 31.070 15.203 C 28.332 16.976, 26.365 17.387, 21.326 17.237 C 15.549 17.066, 14.709 17.317, 11.447 20.180 C 6.581 24.453, 4 29.876, 4 35.825 C 4 45.252, 8.725 47.989, 25 47.989 C 41.275 47.989, 46 45.252, 46 35.825 C 46 29.895, 43.302 24.190, 38.778 20.554 C 35.697 18.077, 35.665 17.991, 38.254 19.122 C 41.455 20.520, 42.842 19.719, 41.020 17.524 C 39.971 16.260, 40.046 16, 41.461 16 C 42.399 16, 42.982 15.438, 42.756 14.750 C 42.016 12.500, 34.811 12.779, 31.070 15.203 M 38 15.500 C 38 15.775, 38.225 16, 38.500 16 C 38.775 16, 39 15.775, 39 15.500 C 39 15.225, 38.775 15, 38.500 15 C 38.225 15, 38 15.225, 38 15.500 M 18 25 C 18 25.550, 19.323 26, 20.941 26 C 22.559 26, 24.160 26.450, 24.500 27 C 24.868 27.595, 23.677 28, 21.559 28 C 19.602 28, 18 28.450, 18 29 C 18 29.550, 19.602 30, 21.559 30 C 23.677 30, 24.868 30.405, 24.500 31 C 24.160 31.550, 22.559 32, 20.941 32 C 17.098 32, 17.231 33.225, 21.568 37.765 C 23.579 39.870, 24.694 40.591, 24.122 39.418 C 23.565 38.273, 22.385 36.735, 21.500 36 C 20.065 34.809, 20.220 34.527, 22.946 33.381 C 24.626 32.674, 26 31.625, 26 31.048 C 26 30.472, 26.900 30, 28 30 C 29.100 30, 30 29.550, 30 29 C 30 28.450, 29.100 28, 28 28 C 26.900 28, 26 27.550, 26 27 C 26 26.450, 26.900 26, 28 26 C 29.100 26, 30 25.550, 30 25 C 30 24.444, 27.333 24, 24 24 C 20.667 24, 18 24.444, 18 25" stroke="none" fill="#248ce4" fill-rule="evenodd"/></svg>